<svg width="72" height="56" viewBox="0 0 72 56" fill="none" xmlns="http://www.w3.org/2000/svg">
<g clip-path="url(#clip0_2002_1869)">
<path d="M36 0C37.1935 0 38.3381 0.460936 39.182 1.28141C40.0259 2.10188 40.5 3.21468 40.5 4.375C40.5 5.53532 40.0259 6.64812 39.182 7.46859C38.3381 8.28906 37.1935 8.75 36 8.75C34.8065 8.75 33.6619 8.28906 32.818 7.46859C31.9741 6.64812 31.5 5.53532 31.5 4.375C31.5 3.21468 31.9741 2.10188 32.818 1.28141C33.6619 0.460936 34.8065 0 36 0ZM41.0288 17.9703L42.2775 27.6719C42.4575 29.1156 41.4112 30.4172 39.9375 30.6031C38.4637 30.7891 37.1138 29.7609 36.9225 28.3281L36.4275 24.5H35.5725L35.0775 28.3281C34.8975 29.7719 33.5475 30.7891 32.0625 30.6031C30.5775 30.4172 29.5313 29.1156 29.7225 27.6719L30.9712 17.9594L28.7437 19.7969C27.6075 20.7375 25.8975 20.5953 24.9412 19.4906C23.985 18.3859 24.12 16.7234 25.2562 15.7937L28.395 13.2125C30.5212 11.4625 33.2212 10.5 36 10.5C38.7787 10.5 41.4787 11.4625 43.605 13.2016L46.7437 15.7828C47.88 16.7234 48.0262 18.375 47.0587 19.4797C46.0912 20.5844 44.3925 20.7266 43.2562 19.7859L41.0288 17.9594V17.9703ZM4.5 7C6.98625 7 9 8.95781 9 11.375V28.8969C9 30.7563 9.75375 32.5391 11.1037 33.8516L16.8525 39.4406C17.7862 40.3484 19.2487 40.4906 20.34 39.7797C21.7912 38.8391 21.9937 36.8375 20.7562 35.6453L19.0462 33.9828L15.4462 30.4828C14.04 29.1156 14.04 26.8953 15.4462 25.5281C16.8525 24.1609 19.1363 24.1609 20.5425 25.5281L24.1425 29.0281L25.8525 30.6906L28.6987 33.4578C31.0612 35.7547 32.3887 38.8719 32.3887 42.1203V50.75C32.3887 53.6484 29.97 56 26.9887 56H19.485C17.5725 56 15.7387 55.2672 14.3887 53.9547L3.16125 43.0281C1.13625 41.0594 0 38.3906 0 35.6016V11.375C0 8.95781 2.01375 7 4.5 7ZM67.5 7C69.9862 7 72 8.95781 72 11.375V35.6016C72 38.3906 70.8638 41.0594 68.8388 43.0281L57.6 53.9547C56.25 55.2672 54.4162 56 52.5037 56H45C42.0187 56 39.6 53.6484 39.6 50.75V42.1203C39.6 38.8719 40.9275 35.7547 43.29 33.4578L46.1362 30.6906L47.8462 29.0281L51.4462 25.5281C52.8525 24.1609 55.1362 24.1609 56.5425 25.5281C57.9487 26.8953 57.9487 29.1156 56.5425 30.4828L52.9425 33.9828L51.2325 35.6453C49.995 36.8484 50.1975 38.8391 51.6487 39.7797C52.74 40.4906 54.2025 40.3484 55.1362 39.4406L60.885 33.8516C62.235 32.5391 62.9888 30.7563 62.9888 28.8969V11.375C62.9888 8.95781 65.0025 7 67.4888 7H67.5Z" fill="#1447E6"/>
</g>
<defs>
<clipPath id="clip0_2002_1869">
<rect width="72" height="56" fill="white"/>
</clipPath>
</defs>
</svg>
